<?xml version="1.0" encoding="UTF-8"?>
<!DOCTYPE svg PUBLIC "-//W3C//DTD SVG 1.1//EN" "http://www.w3.org/Graphics/SVG/1.1/DTD/svg11.dtd">
<!-- Creator: CorelDRAW X8 -->
<svg xmlns="http://www.w3.org/2000/svg" xml:space="preserve" width="265px" height="88px" version="1.1" style="shape-rendering:geometricPrecision; text-rendering:geometricPrecision; image-rendering:optimizeQuality; fill-rule:evenodd; clip-rule:evenodd"
viewBox="0 0 2650000 880000"
 xmlns:xlink="http://www.w3.org/1999/xlink">
 <defs>
  <style type="text/css">
   <![CDATA[
    .fil0 {fill:#418BCA}
    .fil2 {fill:white}
    .fil1 {fill:url(#id0)}
    .fil3 {fill:url(#id1);fill-rule:nonzero}
   ]]>
  </style>
  <linearGradient id="id0" gradientUnits="userSpaceOnUse" x1="580000" y1="810001" x2="450001" y2="329999">
   <stop offset="0" style="stop-opacity:1; stop-color:#3074B0"/>
   <stop offset="1" style="stop-opacity:1; stop-color:#418BCA"/>
  </linearGradient>
  <linearGradient id="id1" gradientUnits="userSpaceOnUse" x1="1.55e+06" y1="300002" x2="1.6636e+06" y2="700002">
   <stop offset="0" style="stop-opacity:1; stop-color:#418BCA"/>
   <stop offset="1" style="stop-opacity:1; stop-color:#2F72AD"/>
  </linearGradient>
 </defs>
 <g id="Layer_x0020_1">
  <metadata id="CorelCorpID_0Corel-Layer"/>
  <g id="_792874336">
   <circle class="fil0" cx="493249" cy="440000" r="400000"/>
   <path class="fil1" d="M750604 132327c88223,73372 144397,183957 144397,307673 0,220913 -179088,400000 -400000,400000 -220913,0 -400001,-179087 -400001,-400000 0,-12501 604,-24863 1727,-37072 45677,143286 179847,247071 338273,247071 196061,0 355000,-158939 355000,-355000 0,-58632 -14225,-113936 -39396,-162672z"/>
   <path class="fil2" d="M390000 209999c91125,0 164999,73874 164999,165000 0,81201 -58660,148708 -135916,162445 -17688,3146 -34447,3183 -40861,1749 -15356,-3439 -27599,-17442 -27703,-34189 -108,-16892 11965,-30991 27878,-34279 11078,-2282 20872,-187 34195,-3436 41556,-10137 72405,-47614 72405,-92293 0,-52464 -42534,-94998 -94997,-94998 -42526,0 -78529,27944 -90641,66473 -5182,16483 -4360,30931 -4360,47548l0 260981c0,19235 -15749,34999 -34999,34999l0 0c-19250,0 -35000,-15749 -35000,-34999l0 -267719c0,-16909 -37,-29755 3711,-47177 16013,-74361 82137,-130105 161289,-130105z"/>
   <path class="fil2" d="M602833 690002c-91125,0 -164999,-73874 -164999,-164999 0,-81202 58660,-148709 135916,-162446 17688,-3146 34447,-3183 40861,-1749 15356,3439 27599,17442 27703,34189 108,16892 -11965,30991 -27878,34279 -11078,2282 -20872,188 -34195,3436 -41556,10137 -72405,47614 -72405,92293 0,52464 42534,94998 94997,94998 42526,0 78529,-27944 90641,-66473 5182,-16483 4360,-30931 4360,-47548l0 -260980c0,-19236 15749,-35000 34999,-35000l0 0c19250,0 35000,15749 35000,35000l0 267718c0,16909 37,29755 -3711,47177 -16013,74361 -82137,130105 -161289,130105z"/>
   <path class="fil3" d="M965000 215893l0 153065 33321 0 0 -55035 34396 0c30741,0 54391,-15477 54391,-48798 0,-33755 -23006,-49232 -56112,-49232l-65996 0zm33321 27515l30095 0c14837,0 26017,5806 26017,22142 0,16982 -11180,21932 -26232,21932l-29880 0 0 -44074zm111138 -27515l0 153065 33330 0 0 -59978 29880 0c21923,0 28377,7523 30523,28587 859,8391 859,23652 4734,31391l34824 0c-6021,-5593 -6446,-26657 -7308,-36332 -1293,-15046 -5593,-32244 -22575,-35685 15262,-5808 24296,-19778 24296,-37627 0,-30739 -23434,-43421 -51597,-43421l-76107 0zm33330 26441l33318 0c14188,0 28162,3013 28162,20636 0,18919 -13974,21717 -29664,21717l-31816 0 0 -42353zm235400 -26441l-114794 0 0 153065 116305 0 0 -28159 -82987 0 0 -37628 74815 0 0 -26441 -74815 0 0 -33322 81476 0 0 -27515zm137807 45575c-644,-34180 -26657,-48798 -58901,-48798 -35691,0 -58910,18056 -58910,45785 0,31175 23862,37411 48798,44507 31610,9025 41928,11179 41928,23218 0,12682 -10752,20421 -28378,20421 -20426,0 -33970,-8172 -34614,-28811l-33318 0c425,34614 24936,54609 66421,54609 31176,0 62992,-13331 62992,-49450 0,-25580 -17413,-36117 -44714,-43855 -30526,-8600 -46865,-9669 -46865,-23003 0,-10962 9244,-17414 24724,-17414 17841,0 27734,7954 29018,22791l31819 0zm162958 48373l-33318 0c-2798,22357 -14837,34396 -35048,34396 -24721,0 -40416,-20211 -40416,-51812 0,-25580 11395,-52027 40850,-52027 18056,0 30523,9890 33962,26657l32893 0c-2580,-31601 -29452,-54819 -66215,-54819 -46862,0 -75240,35473 -75240,79974 0,48370 29449,80405 73956,80405 41919,0 65138,-25370 68576,-62774zm23862 -93948l0 153065 33327 0 0 -59978 29880 0c21926,0 28378,7523 30524,28587 861,8391 861,23652 4734,31391l34823 0c-6018,-5593 -6446,-26657 -7305,-36332 -1295,-15046 -5592,-32244 -22575,-35685 15262,-5808 24293,-19778 24293,-37627 0,-30739 -23434,-43421 -51593,-43421l-76108 0zm33327 26441l33321 0c14185,0 28160,3013 28160,20636 0,18919 -13975,21717 -29665,21717l-31816 0 0 -42353zm154361 -26441l-33755 0 0 153065 33755 0 0 -153065zm29880 0l0 153065 33321 0 0 -55035 34396 0c30742,0 54391,-15477 54391,-48798 0,-33755 -23006,-49232 -56112,-49232l-65996 0zm33321 27515l30096 0c14836,0 26016,5806 26016,22142 0,16982 -11180,21932 -26232,21932l-29880 0 0 -44074zm223580 -27515l-125764 0 0 28593 46000 0 0 124472 33755 0 0 -124472 46009 0 0 -28593zm51378 0l-33752 0 0 153065 33752 0 0 -153065zm98884 -3657c-45785,0 -75880,31816 -75880,80407 0,47937 30305,79972 75671,79972 44926,0 75240,-32250 75240,-79972 0,-47948 -30314,-80407 -75031,-80407zm-425 27519c25580,0 41494,19992 41494,52237 0,32677 -15696,52888 -41069,52888 -26005,-215 -41918,-19995 -41918,-52888 0,-31817 16123,-52237 41493,-52237zm98465 129203l32459 0 0 -102765 63420 102765 33536 0 0 -153065 -32244 0 0 102546 -62991 -102546 -34180 0 0 153065zm-1460587 317991l107138 0c82208,0 128339,-47242 128339,-132435 0,-85572 -46185,-132443 -128339,-132443l-107138 0 0 264878zm57662 -48365l0 -168154 42401 0c52455,0 77020,30883 77020,84084 0,53192 -23868,84070 -77020,84070l-42401 0zm337417 -222837c-79237,0 -131318,55063 -131318,139138 0,82959 52447,138394 130952,138394 77738,0 130201,-55806 130201,-138394 0,-82964 -52463,-139138 -129835,-139138zm-746 47622c44269,0 71808,34599 71808,90394 0,56543 -27199,91678 -71062,91522 -44989,-161 -72547,-34605 -72547,-91522 0,-55058 27904,-90394 71801,-90394zm406996 121283l-57656 0c-4848,38690 -25677,59516 -60656,59516 -42772,0 -69931,-34971 -69931,-89654 0,-44269 19718,-90037 70682,-90037 31249,0 52824,17119 58774,46134l56925 0c-4470,-54683 -50973,-94864 -114579,-94864 -81100,0 -130201,61387 -130201,138387 0,83710 50958,139145 127973,139145 72538,0 112717,-43903 118669,-108627zm235863 -162581l-217636 0 0 49484 79608 0 0 215394 58414 0 0 -215394 79614 0 0 -49484zm150285 -6324c-79229,0 -131313,55063 -131313,139138 0,82959 52441,138394 130947,138394 77746,0 130201,-55806 130201,-138394 0,-82964 -52455,-139138 -129835,-139138zm-740 47622c44263,0 71801,34599 71801,90394 0,56543 -27192,91678 -71061,91522 -44989,-161 -72539,-34605 -72539,-91522 0,-55058 27896,-90394 71799,-90394zm172616 -41298l0 264878 57668 0 0 -103788 51712 0c37939,0 49136,13042 52821,49470 1463,14491 1483,40924 8187,54318l60261 0c-10420,-9675 -11205,-46151 -12642,-62870 -2240,-26008 -9680,-55800 -39062,-61753 26408,-10054 42035,-34225 42035,-65109 0,-53200 -40606,-75146 -89283,-75146l-131697 0zm57668 45759l57662 0c24545,0 48734,5213 48734,35717 0,32732 -24242,37573 -51333,37573l-55063 0 0 -73290z"/>
  </g>
 </g>
</svg>
